
<svg width="283px" height="510px" viewBox="557 275 283 510" version="1.1" xmlns="http://www.w3.org/2000/svg" xmlns:xlink="http://www.w3.org/1999/xlink">
  <g id="44" stroke="none" stroke-width="1" fill="none" fill-rule="evenodd" transform="translate(557.000000, 275.000000)">
    <path d="M179.479,257.646 C172.138,271.008 157.936,280.063 141.618,280.063 C117.779,280.063 98.435,260.73 98.44,236.886 C98.44,213.048 117.779,193.72 141.618,193.712 C157.291,193.712 171.021,202.069 178.584,214.567 C177.351,183.171 174.939,154.001 171.908,127.555 C135.62,114.773 104.989,126.545 84.674,139.88 C66.587,207.619 52.866,302.111 59.916,425.93 L141.616,425.928 L167.206,425.928 C176.218,366.238 179.589,309.511 179.479,257.646" id="Fill-55" fill="#FFFFFF"></path>
    <path d="M198.943,141.305 C189.645,135.09 180.617,130.626 171.908,127.555 C174.939,154.001 177.351,183.171 178.584,214.567 C182.524,221.076 184.797,228.719 184.797,236.888 C184.792,244.413 182.863,251.483 179.479,257.646 C179.589,309.511 176.218,366.238 167.206,425.928 L223.315,425.928 C230.313,302.987 216.853,208.944 198.943,141.305" id="Fill-56" fill="#E6E7E8"></path>
    <path d="M221.58,436.26 L165.588,436.262 C163.637,448.387 161.45,460.626 159.008,472.965 L238.853,472.965 L221.58,436.26" id="Fill-57" fill="#E2E3E4"></path>
    <path d="M141.613,436.262 L61.651,436.26 L44.378,472.965 L159.008,472.965 C161.45,460.626 163.637,448.387 165.588,436.262 L141.613,436.262" id="Fill-58" fill="#FFFFFF"></path>
    <path d="M184.625,210.917 C175.826,196.376 159.858,186.654 141.618,186.654 C113.881,186.66 91.382,209.148 91.382,236.886 C91.374,264.631 113.881,287.121 141.618,287.121 C160.603,287.121 177.126,276.583 185.668,261.038 C189.608,253.876 191.852,245.642 191.854,236.888 C191.854,227.383 189.214,218.496 184.625,210.917" id="Fill-59" fill="#414042"></path>
    <path d="M154.599,21.885 C159.819,45.871 165.729,77.668 170.483,115.639 C178.548,118.517 186.91,122.684 195.513,128.437 C181.947,77.193 165.685,42.101 154.599,21.885" id="Fill-60" fill="#E2E3E4"></path>
    <path d="M141.631,0.895 C141.631,0.895 111.099,41 88.113,127.096 C107.274,114.512 136.207,103.402 170.483,115.639 C165.729,77.668 159.819,45.871 154.599,21.885 C146.854,7.762 141.631,0.895 141.631,0.895" id="Fill-61" fill="#FFFFFF"></path>
    <polyline id="Fill-62" fill="#7CB8E4" points="63.983 329.731 25.434 362.664 0.527 470.301 88.087 419.702 63.983 329.731"></polyline>
    <polyline id="Fill-63" fill="#7CB8E4" points="219.24 329.731 257.801 362.669 282.702 470.301 195.14 419.705 219.24 329.731"></polyline>
    <polyline id="Fill-64" fill="#7CB8E4" points="141.618 320.085 127.959 377.925 141.613 509.659 155.271 377.919 141.618 320.085"></polyline>
    <path d="M141.618,193.712 C117.779,193.72 98.44,213.048 98.44,236.886 C98.44,247.037 101.952,256.365 107.817,263.736 L174.306,208.707 C166.387,199.533 154.69,193.712 141.618,193.712" id="Fill-65" fill="#7CB8E4"></path>
    <path d="M174.306,208.707 L107.817,263.736 C115.728,273.682 127.928,280.063 141.618,280.063 C157.936,280.063 172.138,271.008 179.479,257.646 C182.863,251.483 184.792,244.413 184.797,236.888 C184.797,228.719 182.524,221.076 178.584,214.567 C177.324,212.487 175.884,210.536 174.306,208.707" id="Fill-66" fill="#99C0E6"></path>
  </g>
</svg>
